<svg id="Layer_1" data-name="Layer 1" xmlns="http://www.w3.org/2000/svg" viewBox="0 0 350 350"><defs><style>.cls-1{fill:#fdbd4c;}.cls-2{fill:#fff;}</style></defs><title>jr_logo</title><path class="cls-1" d="M34.21,117.72V239.49a35.34,35.34,0,0,0,17.67,30.6L157.33,331a35.34,35.34,0,0,0,35.34,0l105.46-60.89a35.34,35.34,0,0,0,17.67-30.6V117.72a35.34,35.34,0,0,0-17.67-30.6L192.67,26.23a35.34,35.34,0,0,0-35.34,0L51.87,87.12A35.34,35.34,0,0,0,34.21,117.72Z"/><path class="cls-2" d="M150.78,103.86a15.57,15.57,0,0,1,11.46,4.67,15.05,15.05,0,0,1,4.68,11V200a54.58,54.58,0,0,1-4.33,20.7,53,53,0,0,1-11.22,16.61,53.88,53.88,0,0,1-16.85,11.35,54.88,54.88,0,0,1-20.93,4.45,15.38,15.38,0,0,1-15.44-15.68,15.49,15.49,0,0,1,4.56-11.22,14.65,14.65,0,0,1,10.88-4.68,22.74,22.74,0,0,0,8.54-1.64,20.56,20.56,0,0,0,7-4.56,22.27,22.27,0,0,0,4.67-6.9,20.59,20.59,0,0,0,1.76-8.42V119.53a15.43,15.43,0,0,1,4.45-11A14.27,14.27,0,0,1,150.78,103.86Z"/><path class="cls-2" d="M195,253.35a14.5,14.5,0,0,1-10.53-4.1,16.13,16.13,0,0,1-4.67-10.87V195.09a52.75,52.75,0,0,1,4.8-21.17,56.78,56.78,0,0,1,12.17-17.32,57.65,57.65,0,0,1,17.78-11.69,61.21,61.21,0,0,1,21.64-4.8,14.59,14.59,0,0,1,10.88,4.45,16.72,16.72,0,0,1,4.79,10.76A14.27,14.27,0,0,1,247.4,166a16,16,0,0,1-11,4.57A25.63,25.63,0,0,0,218.16,178a27,27,0,0,0-5.61,8.31,25.51,25.51,0,0,0-2.11,10.4v42.58a15.15,15.15,0,0,1-4.56,10.06Q201.78,253.35,195,253.35Z"/></svg>