<svg id="Layer_1" data-name="Layer 1" xmlns="http://www.w3.org/2000/svg" viewBox="0 0 450 450"><defs><style>.cls-1{fill:#fdbd4c;}.cls-18,.cls-2{fill:#f0d8b7;}.cls-3{fill:#5b1a1a;}.cls-4,.cls-6{fill:#f4faf8;}.cls-18,.cls-4,.cls-6,.cls-7,.cls-8{stroke:#2f1812;}.cls-12,.cls-14,.cls-16,.cls-18,.cls-19,.cls-22,.cls-23,.cls-24,.cls-4,.cls-5,.cls-6,.cls-7,.cls-8{stroke-miterlimit:10;}.cls-4{stroke-width:1.25px;}.cls-5{fill:#f16669;stroke:#4c352e;}.cls-12,.cls-14,.cls-16,.cls-18,.cls-19,.cls-22,.cls-23,.cls-24,.cls-5,.cls-6,.cls-7,.cls-8{stroke-width:2px;}.cls-11,.cls-12,.cls-14,.cls-22,.cls-7{fill:none;}.cls-8{fill:#ead6b1;}.cls-9{fill:#2e1812;}.cls-10{fill:#d2aa87;}.cls-12{stroke:#000;}.cls-13{fill:#482615;}.cls-14{stroke:#482716;}.cls-15{fill:#cda88a;}.cls-16{fill:#2f342e;stroke:#2d2825;}.cls-17{fill:#262725;}.cls-19{fill:#9f9b9b;}.cls-19,.cls-22,.cls-23{stroke:#2e1913;}.cls-20{fill:#fff8f8;}.cls-21{fill:#e5e5e5;}.cls-23,.cls-24{fill:#f8f7f7;}.cls-24{stroke:#9f9b9b;}.cls-25{fill:#c6c4c2;}</style></defs><title>jr_character</title><path class="cls-1" d="M35.22,158.57V315.66A35.34,35.34,0,0,0,54.1,346.93l154.44,81.28a35.34,35.34,0,0,0,32.91,0L395.9,346.93a35.34,35.34,0,0,0,18.88-31.27V158.57A35.34,35.34,0,0,0,395.9,127.3L241.46,46a35.34,35.34,0,0,0-32.91,0L54.1,127.3A35.34,35.34,0,0,0,35.22,158.57Z"/><path id="Face" class="cls-2" d="M143.82,150.45l37.83,4.79-5.47-3.76,22.45,4.31-2.81-5.34s19.33,5.68,28.06,6l31.46-5.66-2,5.13,22.43-4.57-5.8,4.31,34.4-7.46s5.68,2.43,4.45,39.59l7.6,2.87-4.38,39.83L294.81,257s-19.06,26.48-67.41,31.21c0,0-39.18.34-71.76-31.21l-13.82-22.79-6-38.19,7.12-4.93S136,159.2,143.82,150.45Z"/><path id="Inside_mouth" data-name="Inside mouth" class="cls-3" d="M184.93,251.73h8.35s-.89,6.3,3.15,8.35,46.5,1.24,56.53-3.38c0,0,4,3.45,4.24,3.25s2.87-2.2,3.56-4l1.28-1.22v-5.34l3.19-.86s2.63.54-.73,15.23c0,0-4.59,2.25-12.19-5.23,0,0-10.78,5.3-53.28,3a9.41,9.41,0,0,0-4,4.59H191.5S189.81,255.27,184.93,251.73Z"/><path id="Bottom_teeth" data-name="Bottom teeth" class="cls-4" d="M262,270.76c2.21-2.21,1.18-6.57,1.18-6.57-1.69-.66-3.56,1.92-3.56,1.92-.68,3.15-4.79,3.83-4.79,3.83-9,5.2-53.38,2.33-53.38,2.33-7.39-1.37-6.43-6.16-6.43-6.16H191.5s0,7.76,2.46,9C194,275.14,242.52,290.33,262,270.76Z"/><path id="Tongue" class="cls-5" d="M195.06,266.11a11.46,11.46,0,0,1,4-4.59s46.81,1.75,53.28-3c0,0,4.42,5,9.75,5.65,0,0-2.23,1.38-2.4,1.92s-.58,3.42-4.79,3.83c0,0-11.5,6.3-53.38,2.33C201.49,272.26,193.86,271.51,195.06,266.11Z"/><path id="Top_teeth" data-name="Top teeth" class="cls-6" d="M205.87,253.36a394.12,394.12,0,0,0,56.17-4v5.34L260.76,256a11.75,11.75,0,0,1-3.56,4A25.81,25.81,0,0,1,253,256.7c-14.51,6.74-56.53,3.38-56.53,3.38a7.79,7.79,0,0,1-3.13-6.77q6.36.09,12.58,0"/><path id="Mouth" class="cls-7" d="M263.91,247.76c-36.07,7.61-79,2.46-79,4s8.21,8.08,5.47,20.26c0,0,4.65,9.31,36.55,8.49,0,0,26.24,2.33,35.09-8.9C262.85,274.37,271.18,246.23,263.91,247.76Z"/><path id="Right_ear" data-name="Right ear" class="cls-8" d="M295.32,257c75.35-14.17,30.39-58.1,30.39-58.1C316.37,222.4,306.41,242.66,295.32,257Z"/><g id="Right_ear_properties" data-name="Right ear properties"><path class="cls-9" d="M304.51,246.57l1.12-1.87a13.62,13.62,0,0,0,11-3.13l1.1,1.27S313.77,247.5,304.51,246.57Z"/><path class="cls-10" d="M319.82,217.08l3.21-7.37c22.17,38.12-20.33,39.7-20.33,39.7l1.8-2.83c9.24.81,13.2-3.74,13.2-3.74l-1.1-1.27a13.45,13.45,0,0,1-11,3.13l4-7-.33,3.5,3.56-8.3,4-9.2,2.36-5.15c3.83,3.12,2.89,5.24,2.89,5.24l1.68.3c.47-3.43-3.18-6.52-3.87-7.07l-.69,1.53"/><path class="cls-9" d="M319.16,218.57l.69-1.53s4.51,3.59,3.87,7.07l-1.68-.3S323,221.64,319.16,218.57Z"/></g><path id="Chin" class="cls-7" d="M295.32,257c-17.69,19-40.88,28.4-67.92,31.21C181.78,286.36,155.64,257,155.64,257"/><path id="Left_ear" data-name="Left ear" class="cls-8" d="M155.64,257c-73.77-17.45-29.56-54.13-29.56-54.13C138.5,229.33,148.69,248.47,155.64,257Z"/><g id="Left_ear_properties" data-name="Left ear properties"><path class="cls-11" d="M132.67,243.06a15.25,15.25,0,0,0,13.89,3.41"/><path class="cls-9" d="M146.52,246.48a15.26,15.26,0,0,1-13.85-3.42l1.12-1.26a13.61,13.61,0,0,0,10.94,3.3l-3.59-8.27-3.38-6.4-6-11.81c-4.08,2.92-3.15,5.33-3.15,5.33l-1.68.27c-.7-4.44,4.1-7.09,4.1-7.09l.73,1.49"/><path class="cls-10" d="M128.58,212c-23.68,32.85,19.93,37.62,19.93,37.62l-2-3.18"/><path class="cls-9" d="M145.52,246.7a15.48,15.48,0,0,1-12.84-3.64l1.13-1.26a13.59,13.59,0,0,0,11,3.3Z"/><path class="cls-9" d="M145.17,245a.94.94,0,0,0,.55-.15l1,1.62-1.25.22"/><path class="cls-9" d="M127.21,224.08l1.68-.27s-.9-2.28,3.15-5.33l-.73-1.49S126.55,219.47,127.21,224.08Z"/><path class="cls-10" d="M145.63,244.87l-.66-1.14s.2,1.21.2,1.24S145.24,245.08,145.63,244.87Z"/></g><g id="Glasses"><circle class="cls-12" cx="180.56" cy="214.13" r="34.04"/><circle class="cls-12" cx="271.77" cy="214.13" r="34.04"/><path class="cls-12" d="M214.61,206.29s12.12-5.54,24,0"/><line class="cls-12" x1="146.52" y1="206.29" x2="135.79" y2="196.03"/><path class="cls-12" d="M305.81,206.29c-.68,1.08,10.65-15.6,10.65-15.6"/></g><g id="Right_eye" data-name="Right eye"><path class="cls-13" d="M250.62,200.27c16.3-19.87,40.4-12.76,42.29-11.36A63.94,63.94,0,0,0,250.62,200.27Z"/><path class="cls-13" d="M262,214.37c10.17-9.36,32.77-2.05,34.77,0C284.56,210.41,272.83,210.24,262,214.37Z"/><path class="cls-13" d="M301.14,220.66s-18.48-13.28-47.08,0a24.41,24.41,0,0,1,2.46,7.66s20.53-10.68,41.34-3.42Z"/><line class="cls-14" x1="300.5" y1="218" x2="299.03" y2="219.47"/><line class="cls-14" x1="299.18" y1="217.45" x2="297.88" y2="219.07"/></g><g id="Left_eye" data-name="Left eye"><path class="cls-13" d="M201.49,200.27c-16.3-19.87-40.4-12.76-42.29-11.36A63.94,63.94,0,0,1,201.49,200.27Z"/><path class="cls-13" d="M190.41,214.37c-10.17-9.36-32.77-2.05-34.77,0C167.89,210.41,179.61,210.24,190.41,214.37Z"/><path class="cls-13" d="M150.3,220.66s18.48-13.28,47.08,0a24.41,24.41,0,0,0-2.46,7.66s-20.53-10.68-41.34-3.42Z"/><line class="cls-14" x1="150.93" y1="218" x2="152.41" y2="219.47"/><line class="cls-14" x1="152.26" y1="217.45" x2="153.56" y2="219.07"/></g><path id="Hair_Shadow" data-name="Hair Shadow" class="cls-15" d="M206.68,140.38l8.5,9.78L197.48,143l9.08,7.81-24.39-8.73,7.73,7.42-21.72-7.42,6.88,6.07-25.12-5.58a15.54,15.54,0,0,0-6.13,7.88l37.83,4.79-5.47-3.76,22.45,4.31-2.81-5.34s17.27,5.37,28.06,6c0,0,19.37-3.35,31.46-5.66l-2,5.13,22.43-4.57-5.8,4.31,34.4-7.46s-2.74-7.46-8-8.08l-24,8.58,9.66-7.34-24.5,8.39,11.32-8.31-25.66,7.81,7.61-6-17.74,6.76,8.77-8.35-18.13,8.08Z"/><path id="Hair" class="cls-16" d="M135.79,196l7.12-4.93s-9.85-40,6.84-49.82l20.94,4.65-8-7,22.38,7.6-8-7.6,23.61,8.42L190.82,139l20.12,8.21-9.85-11.29,22.79,12.52,24-10.68-9.44,9,19.91-7.6-9,7,26.28-8-10.68,7.8,24-8.21-9.44,7.19,16.63-6s16.42-1.44,12.73,48.86l7.6,2.87-4.38,39.83L325.7,198.9l11.7,3.49L330,192.64l14.78,5.24-7.8-16,10.68,7.6-9-19.71,11.7,6.78s-2.67-25.25-9.85-35.52l11.09,13.14s-4.52-20.33-14.78-29.56l13.35,10.06s-4.31-23.61-18.89-31l15.6,8S339.46,96,326.32,94.19c1.61-5,6-7,13.35-5.75,0,0-11.09-11.5-19.71-.41,0,0,3.9-13.28,2.67-20.39,0,0-.27,8.49-6.3,11.36A55,55,0,0,0,314,52.86s1.92,16.29-4.11,19c-.37-17.6-5.44-31.56-22.17-36.82a18.19,18.19,0,0,1,6.43,16.7c-13-6.06-22-15-24.09-28.88-2.32,5.26-3.15,11.74-2.33,19.57,0,0-5.75-19.16-17.38-22.58,0,0,7.8,6,7.66,16.42,0,0-8.08-12.59-22.86-18.61,0,0,10.4,10.13,11.63,16.15l.07.41c-9.75.05-20.18-4.33-28.54-14.06,0,0-.31,7.29,4.72,15.6-12.48-3.34-22.4-9.69-29.46-19.4,0,0,4.72,16.22,12,20.53-13-1.64-27.41,2.67-39-6.78,0,0,7.19,11,9.75,12.42,0,0-12.63-4.62-31.21,4.82,0,0,9.75-1.23,16,9.14,0,0-29.87,14.58-41.16-2.36,0,0,3.28,17.35,13.24,24.12-10.08,6.31-17.62,0-20.63-7.56,0,0,3.56,21.76,10.33,25.32,0,0-9.79-3-23,13.76,0,0,9.92-8.28,20.53-4.52,0,0-11.84,6.16-18.34,21.69l17.79-6.64c-4.16,9.09-11.85,16.72-21.49,23.54,6.64,2.67,16.63-3.7,16.63-3.7-7.6,6.36-14.37,27.1-14.37,27.1l12.93-14.17-11.29,29.36,12.32-7-6.36,14.17,9.44-4.93-5.47,13.21,11.22-6.57-5.2,11.22,9-1.92,14.51,33.53Z"/><path id="Hair_primary" data-name="Hair primary" class="cls-17" d="M325.7,198.9l11.7,3.49L330,192.64l14.78,5.24-7.8-16,10.68,7.6-9-19.71,11.7,6.78c-2-24-9.85-35.52-9.85-35.52l11.09,13.14c-4.86-21.35-14.78-29.56-14.78-29.56l13.35,10.06c-11.22-20.19-28.06-27.85-28.06-27.85A32.82,32.82,0,0,1,328,130.6l-9.85-13.28-15.06,11.91,3.56-10.95-33.26,12,4.79-7.88L254.6,132l1.64-7.53L224.9,135.8l-32.71-11.5v5.34l-9.31-5.34V135c-25.18-13.41-30.93-14.23-30.93-14.23,2.46,5.06,1.37,6.84,1.37,6.84l-14.65-10.13-9.72,12-2.19-20c-6.18-3.56-22.87,15.59-24.64,17.45l17.79-6.64a67.79,67.79,0,0,1-21.49,23.54c6.16,2.46,16.63-3.7,16.63-3.7-6.78,4.79-14.37,27.1-14.37,27.1l12.93-14.17-11.29,29.36,12.32-7-6.36,14.17,9.44-4.93-5.47,13.21,11.22-6.57-5.2,11.22,9-1.92,14.51,33.53-6-38.19,7.12-4.93c-9.58-44.35,6.84-49.82,6.84-49.82l20.94,4.65-8-7,22.38,7.6-8-7.6,23.61,8.42L190.82,139l20.12,8.21-9.85-11.29,22.79,12.52,24-10.68-9.44,9,19.91-7.6-9,7,26.28-8-10.68,7.8,24-8.21-9.44,7.19,16.63-6c17.18.55,12.73,48.86,12.73,48.86l7.6,2.87-4.38,39.83Z"/><path class="cls-18" d="M240.87,292.73v-6.51c-14.76,4-30.23,0-30.23,0v6.51S223.78,300.53,240.87,292.73Z"/><path class="cls-19" d="M256.82,297.84a34.1,34.1,0,0,1,10,16.94H182.6s7-16.63,22.79-24.64a46.05,46.05,0,0,0,40.24,0,42.63,42.63,0,0,1,11.18,7.7"/><path class="cls-20" d="M199.85,313.55l7.39-16.63s15.6,6.31,37,0l8.42,16.63Z"/><path class="cls-21" d="M281.14,386.55a.65.65,0,0,0,.63-.57l6.84-69.71a.82.82,0,0,0-.48-.79l-2.31-.58a10.46,10.46,0,0,0-1.15-.08H165.32a9,9,0,0,0-1.15.09l-2.75.8a.88.88,0,0,0-.46.82L167.77,386a.65.65,0,0,0,.63.57Z"/><path class="cls-22" d="M281.14,386.55a.65.65,0,0,0,.63-.57l6.84-69.71a.82.82,0,0,0-.48-.79l-2.31-.58a10.46,10.46,0,0,0-1.15-.08H165.32a9,9,0,0,0-1.15.09l-2.75.8a.88.88,0,0,0-.46.82L167.77,386a.65.65,0,0,0,.63.57Z"/><circle class="cls-23" cx="224.79" cy="350.68" r="7.8"/><g id="Alien"><path class="cls-24" d="M221.51,349.75a13.87,13.87,0,0,1,2.57.45,2,2,0,0,0-1,1.6,1.8,1.8,0,0,0,1.07,1.7,2,2,0,0,0-1.07,1.72.27.27,0,0,0,.26.2.24.24,0,0,0,.24-.2s-.15-1,1.33-1.49c0,0,1.4-.41,1.58-1.62a1.8,1.8,0,0,0-.62-1.66l-.62.19a1.34,1.34,0,0,1,.75,1.24s.14.79-1.2,1.35c0,0-1.17-.3-1.22-1.34,0,0-.17-1,1.33-1.51a12.25,12.25,0,0,1,3.15-.64.26.26,0,0,0,.16-.26s0-.15-.15-.19a2.58,2.58,0,0,1-.4-.72A4.88,4.88,0,0,0,227,347a2.37,2.37,0,0,0-2.16-1,2.63,2.63,0,0,0-2.75,1.92s-.16.64-.22.78a2.69,2.69,0,0,1-.38.62.27.27,0,0,0-.15.28A.28.28,0,0,0,221.51,349.75Z"/><path class="cls-24" d="M224.27,354.49h1a1.32,1.32,0,0,1,.28.42H224A.77.77,0,0,1,224.27,354.49Z"/><path class="cls-24" d="M225.25,354a4.49,4.49,0,0,0,.51-.27,1.75,1.75,0,0,1,.75,1.49.26.26,0,0,1-.24.22s-.16.05-.27-.18A1.27,1.27,0,0,0,225.25,354Z"/><circle class="cls-24" cx="223.38" cy="348.49" r="0.28"/><circle class="cls-24" cx="226.2" cy="348.49" r="0.28"/></g><rect class="cls-21" x="167.27" y="390.37" width="115.25" height="7.39" rx="0.58" ry="0.58"/><rect class="cls-22" x="167.27" y="390.37" width="115.25" height="7.39" rx="0.58" ry="0.58"/><ellipse class="cls-25" cx="224.76" cy="403.42" rx="57.76" ry="1.85"/></svg>